<svg width="101" height="17" viewBox="0 0 101 17" fill="none" xmlns="http://www.w3.org/2000/svg">
<path fill-rule="evenodd" clip-rule="evenodd" d="M60.1831 0.834142L58.711 1.45193V2.84558V4.23924H57.5837H56.4563L56.4863 5.56776L56.5163 6.89629L57.6136 6.92599L58.711 6.95568L58.7119 9.79144C58.7127 13.0191 58.7909 13.6876 59.2871 14.7137C59.6382 15.4396 60.7429 16.743 61.007 16.743C61.0795 16.743 61.4718 16.3359 61.8788 15.8385C63.0393 14.4197 62.9771 14.6007 62.476 14.1026C61.7248 13.3557 61.7087 13.2682 61.7087 9.92137V6.94839H62.7793L63.8499 6.94839V5.59381V4.23924L62.7816 4.23924H61.7132L61.6842 2.22779L61.6552 0.216248L60.1831 0.834142ZM6.14419 1.94281C3.29327 2.33303 0.919086 4.37188 0.185399 7.06009C-0.0386789 7.88107 -0.0645876 9.58752 0.134759 10.3869C0.213449 10.7021 0.472215 11.3576 0.709997 11.8435C1.06886 12.5772 1.30772 12.8872 2.11763 13.671C3.62355 15.1286 5.01833 15.6963 7.10088 15.6995C8.69341 15.702 10.0341 15.2823 11.2974 14.3858C11.5703 14.1922 11.823 14.0339 11.859 14.0339C11.8951 14.0339 12.4185 14.3872 13.0223 14.8191L14.1202 15.6043L14.1485 12.1544C14.164 10.2571 14.164 7.18742 14.1485 5.33311L14.1202 1.96157L12.9739 2.79599L11.8275 3.6304L11.3226 3.25508C9.93938 2.22717 7.87964 1.70524 6.14419 1.94281ZM15.7797 8.81729V15.701H17.1714H18.5632L18.5632 11.4149C18.5632 8.43123 18.6015 7.00455 18.6891 6.71988C18.8538 6.18482 19.5668 5.40521 20.1114 5.16431C21.111 4.72251 22.6449 5.0327 23.3212 5.81336C23.9195 6.50388 23.9163 6.47449 23.9163 11.2693L23.9163 15.701H25.3616H26.8069L26.8048 11.5592C26.8036 9.28107 26.7544 7.08906 26.6956 6.68789C26.4511 5.02416 25.2567 3.454 23.6842 2.72909C21.9051 1.90895 19.7361 2.0568 18.1711 3.10473C17.859 3.31375 17.6521 3.39044 17.5677 3.32844C17.4969 3.27665 17.0657 2.94155 16.6094 2.58384L15.7797 1.93354L15.7797 8.81729ZM33.6065 2.21925C32.3977 2.50371 31.447 3.05221 30.3819 4.07992C29.6174 4.81753 29.3227 5.18952 29.0179 5.80221C28.4829 6.87764 28.2763 7.74842 28.2763 8.92815C28.2763 10.8147 28.869 12.2483 30.2246 13.6412C31.1809 14.6237 32.0547 15.1748 33.2306 15.5367C35.8089 16.3304 38.5326 15.6629 40.449 13.7677C40.9677 13.2548 41.7546 12.1448 41.8266 11.8247C41.8389 11.7701 41.5117 11.538 41.0995 11.3091C40.6873 11.0802 40.1497 10.7795 39.9047 10.641L39.4592 10.3891L39.1242 10.9668C38.6932 11.71 37.9899 12.3619 37.2164 12.735C36.4235 13.1174 34.9878 13.2142 34.0489 12.9486C33.7166 12.8547 33.4447 12.7401 33.4447 12.6943C33.4447 12.6266 40.3896 6.60401 41.339 5.84847C41.6064 5.6356 41.607 5.63184 41.4201 5.27538C41.0934 4.65259 39.5703 3.2853 38.7228 2.85413C37.2292 2.09421 35.2053 1.84309 33.6065 2.21925ZM93.0775 8.98025V15.9094H94.5764H96.0752V11.5014V7.09354L96.3573 6.54254C96.8862 5.50952 98.0756 4.99905 99.2037 5.32081C99.5103 5.40834 99.7693 5.47034 99.7794 5.45867C99.8664 5.35874 101 3.07357 101 2.99813C101 2.94395 100.723 2.79338 100.384 2.66365C99.882 2.47099 99.5524 2.4265 98.5911 2.42171C97.2634 2.41504 96.721 2.55154 95.7019 3.1487L95.0869 3.50912L94.1477 2.78015C93.631 2.37909 93.1789 2.05107 93.1429 2.05107C93.1069 2.05107 93.0775 5.1692 93.0775 8.98025ZM42.4378 2.2107C42.4378 2.24123 43.2086 3.57466 44.1507 5.17379C45.0929 6.77302 45.8637 8.10259 45.8637 8.12843C45.8637 8.17376 41.8853 14.9809 41.4516 15.6777L41.2392 16.0191L42.9283 15.9903L44.6174 15.9615L45.9936 13.6171C46.7505 12.3276 47.4099 11.2075 47.459 11.1279C47.5214 11.0267 47.9909 11.7406 49.0179 13.4984L50.4876 16.0136H52.1433C53.0538 16.0136 53.7791 15.9785 53.755 15.9355C53.7309 15.8925 52.7043 14.1256 51.4736 12.0089C50.243 9.8923 49.245 8.13135 49.2559 8.09571C49.2669 8.06008 50.0014 6.78355 50.8883 5.25882C51.7752 3.73419 52.5307 2.41087 52.5672 2.31824C52.627 2.16673 52.4671 2.15267 50.9884 2.17851L49.3432 2.20737L48.4769 3.69303C48.0004 4.51015 47.5902 5.19869 47.5651 5.22307C47.5401 5.24735 47.1109 4.56746 46.6113 3.7121L45.7031 2.15683L44.0704 2.156C43.1725 2.15558 42.4378 2.18017 42.4378 2.2107ZM70.6965 2.41087C69.3675 2.53184 69.343 2.53883 68.4637 3.04752C66.7331 4.04876 65.5629 5.19911 65.5629 5.89911C65.5629 6.0751 65.5235 6.219 65.4754 6.219C65.3327 6.219 65.0276 7.29391 65.0276 7.79635C65.0276 8.05206 64.9753 8.31213 64.9115 8.37424C64.7247 8.55606 64.6687 9.6739 64.8075 10.4508C65.1412 12.3192 66.1074 13.7421 67.8029 14.8622C68.3378 15.2156 68.6109 15.3257 69.0321 15.358C69.3298 15.3809 69.6557 15.472 69.7563 15.5606C69.8567 15.649 69.9841 15.6943 70.0392 15.6611C70.0945 15.6279 70.2734 15.7215 70.4369 15.869L70.7344 16.1373L72.5759 16.0859C73.5887 16.0577 74.5088 15.9886 74.6206 15.9326C74.7322 15.8764 75.1282 15.6974 75.5005 15.5346C75.8727 15.3719 76.3864 15.0497 76.6421 14.8187C76.8976 14.5876 77.2795 14.2676 77.4909 14.1075C77.7021 13.9475 77.8749 13.7556 77.8749 13.6808C77.8749 13.6062 77.975 13.457 78.0972 13.3493C78.3689 13.11 78.8762 12.0938 78.7911 11.9596C78.7572 11.9062 78.8033 11.7906 78.8937 11.7026C79.1313 11.4713 79.3167 10.4149 79.1533 10.2232C79.0371 10.087 79.0865 10.0302 79.2934 10.062C79.538 10.0995 79.2684 7.85168 78.9575 7.26098C78.8519 7.0604 78.7337 6.77042 78.6948 6.61673C78.6557 6.46293 78.5275 6.30736 78.41 6.271C78.2646 6.22609 78.1961 6.11334 78.1961 5.91901C78.1961 5.76178 78.1004 5.54223 77.9832 5.43116C77.4178 4.89443 77.3474 4.84744 77.2217 4.92298C77.1298 4.97821 77.1095 4.95101 77.1555 4.83431C77.1991 4.72365 77.1107 4.57475 76.8978 4.40043C76.7196 4.25445 76.5379 4.13504 76.4941 4.13504C76.4504 4.13504 76.2527 3.99437 76.0548 3.82244C75.857 3.65052 75.6432 3.50985 75.5797 3.50985C75.5162 3.50985 75.2336 3.39033 74.9516 3.24414C74.4752 2.9973 74.4165 2.98938 74.1237 3.1315C73.9446 3.21851 73.7823 3.24321 73.7477 3.18881C73.7143 3.13619 73.7379 3.09306 73.8003 3.09306C73.8626 3.09306 73.9135 3.05784 73.9134 3.01491C73.9131 2.90373 73.2557 2.87278 73.1183 2.9774C73.0552 3.02543 72.57 3.09191 72.0401 3.12515C71.1724 3.17954 71.1097 3.17173 71.4097 3.04617C71.866 2.85528 72.4572 2.213 72.1204 2.27406C72.0761 2.28208 71.4354 2.34366 70.6965 2.41087ZM80.5535 6.81814C80.5547 9.09623 80.6039 11.2882 80.6627 11.6894C81.2044 15.3763 85.6319 17.3842 88.9418 15.4442C89.2875 15.2416 89.6181 15.0758 89.6762 15.0758C89.7343 15.0758 90.15 15.3714 90.5999 15.7325C91.0499 16.0938 91.4783 16.4247 91.5519 16.468C91.6584 16.5309 91.6857 15.1324 91.6857 9.61159V2.67626L90.1869 2.67626H88.688L88.6869 7.02654C88.6859 11.3717 88.6857 11.3774 88.4346 11.9021C87.9989 12.8128 87.2055 13.3045 86.1721 13.3045C85.4341 13.3045 84.9033 13.0963 84.3661 12.596C83.541 11.8279 83.5541 11.9179 83.5515 7.02654L83.5491 2.67626H82.0502H80.5514L80.5535 6.81814ZM70.9159 3.23716C70.9159 3.25915 70.797 3.29926 70.6515 3.32635C70.5061 3.35345 70.4125 3.33542 70.4437 3.28645C70.4985 3.20007 70.9159 3.15662 70.9159 3.23716ZM70.1665 3.40565C70.1665 3.46296 70.1183 3.50985 70.0594 3.50985C70.0006 3.50985 69.9524 3.46296 69.9524 3.40565C69.9524 3.34834 70.0006 3.30145 70.0594 3.30145C70.1183 3.30145 70.1665 3.34834 70.1665 3.40565ZM68.7212 4.1564C68.5445 4.27925 68.123 4.65113 67.7844 4.9829C67.4458 5.31466 67.1688 5.54588 67.1688 5.4967C67.1688 5.44752 67.2884 5.29685 67.4346 5.16191C67.5808 5.02697 67.7012 4.86286 67.7023 4.79732C67.7054 4.59299 68.2936 4.05282 68.5673 4.0027C69.0339 3.91737 69.0468 3.93018 68.7212 4.1564ZM8.89693 5.00874C9.72173 5.3775 10.6413 6.28444 11.0452 7.1275C11.2986 7.65652 11.3336 7.85679 11.3322 8.77186C11.331 9.61399 11.2833 9.9294 11.0836 10.4166C10.7382 11.2599 9.85052 12.1664 8.94661 12.5993C8.27266 12.9221 8.17406 12.9397 7.05613 12.9375C5.97385 12.9353 5.82354 12.91 5.23417 12.6313C1.7426 10.9796 2.07127 5.9584 5.74656 4.80253C6.02856 4.71386 6.57896 4.6702 7.21479 4.68604C8.07267 4.7074 8.33604 4.75793 8.89693 5.00874ZM37.058 5.07063C37.3671 5.20057 37.6167 5.33623 37.6127 5.37218C37.6086 5.40813 36.2263 6.62433 34.541 8.07488L31.4768 10.7121L31.3174 10.4193C31.1045 10.0283 31.0294 8.5197 31.1884 7.82834C31.4666 6.61798 32.667 5.3702 33.9503 4.95716C34.8018 4.68302 36.2632 4.73647 37.058 5.07063ZM73.5894 5.23787C76.2804 6.01571 77.6128 9.00828 76.374 11.4921C75.5192 13.2057 73.3928 14.2864 71.5368 13.9505C67.909 13.2939 66.4121 9.16916 68.8455 6.53493C70.009 5.27538 71.9157 4.75408 73.5894 5.23787ZM67.4408 12.9989C67.5393 13.154 67.4251 13.2383 67.2202 13.1618C67.1256 13.1265 67.0781 13.0503 67.1148 12.9926C67.2016 12.856 67.352 12.8588 67.4408 12.9989Z" fill="#001E41"/>
</svg>
