<svg width="140" height="34" viewBox="0 0 140 34" fill="none" xmlns="http://www.w3.org/2000/svg">
<g clip-path="url(#clip0_1_530)">
<path d="M0 16.4172V24.6583C0 26.1515 1.21868 27.3622 2.7226 27.3622H10.0699V12.7526L0 16.4172Z" fill="url(#paint0_linear_1_530)"/>
<path d="M10.49 12.7526L14.0867 18.1157V27.3619L10.49 22.4562V12.7526Z" fill="url(#paint1_linear_1_530)"/>
<path d="M14.507 10.3785V27.3618H24.582L24.5769 6.71399L14.507 10.3785Z" fill="url(#paint2_linear_1_530)"/>
<path d="M24.9966 6.71362L29.0916 13.7752V27.3619L24.9988 20.0975L24.9966 6.71362Z" fill="url(#paint3_linear_1_530)"/>
<path d="M29.5115 4.15142V27.3619H38.1889C39.6924 27.3619 40.9111 26.1515 40.9111 24.6578V0L29.5115 4.15142Z" fill="url(#paint4_linear_1_530)"/>
<path d="M50.0157 7.42004H59.721C61.9264 7.42004 63.6912 8.03338 64.9852 9.28923C66.3084 10.5159 66.9554 12.1519 66.9554 14.1671C66.9554 16.2411 66.279 17.8766 64.9258 19.1325C63.6031 20.3884 61.7794 21.0017 59.5147 21.0017H54.8677V27.3235H50.0157V7.42004ZM54.8681 16.9712H59.1622C61.0443 16.9712 62.1911 15.8906 62.1911 14.2255C62.1911 12.6191 61.0148 11.5385 59.1622 11.5385H54.8681V16.9712Z" fill="url(#paint5_linear_1_530)"/>
<path d="M73.2008 4.49902V21.9956C73.2008 22.7841 73.7595 23.2806 74.6123 23.2806C74.9651 23.2806 75.5238 23.1346 76.3183 22.8717L77.0534 26.5224C75.7889 27.1362 74.6421 27.4278 73.5831 27.4278C70.5248 27.4278 68.4954 25.3834 68.4954 22.3455V4.49902H73.2008Z" fill="url(#paint6_linear_1_530)"/>
<path d="M92.0633 20.8561H81.2409C81.6232 22.6089 82.8588 23.6895 84.4173 23.6895C85.888 23.6895 86.9466 23.1341 87.5642 21.9951L91.7402 22.842C90.4753 25.8799 87.8582 27.4274 84.4168 27.4274C82.2404 27.4274 80.3877 26.6973 78.8881 25.2661C77.3883 23.8058 76.6234 21.9363 76.6234 19.6582C76.6234 17.4089 77.388 15.5397 78.8881 14.079C80.3877 12.6187 82.2404 11.8885 84.4462 11.8885C86.593 11.8885 88.3871 12.5894 89.8284 14.021C91.2698 15.4521 92.0338 17.3218 92.0633 19.6582V20.8561ZM81.3292 17.9934H87.4171C86.9756 16.4747 85.8582 15.6861 84.4467 15.6861C83.0641 15.6861 81.7703 16.5623 81.3292 17.9934Z" fill="url(#paint7_linear_1_530)"/>
<path d="M104.515 12.2395L104.309 16.9128H103.456C100.074 16.9128 98.3685 18.7528 98.3685 22.404V27.3532H93.6631V11.8806H98.3685V15.1313C99.5742 13.1156 101.28 12.1226 103.456 12.1226C103.838 12.1226 104.191 12.1518 104.515 12.2395Z" fill="url(#paint8_linear_1_530)"/>
<path d="M121.416 4.49902V26.9902H116.71V25.7339C115.533 26.8725 114.004 27.4278 112.122 27.4278C110.122 27.4278 108.416 26.6976 107.004 25.2666C105.622 23.8063 104.916 21.9367 104.916 19.6587C104.916 17.4093 105.622 15.5402 107.004 14.0794C108.416 12.6191 110.122 11.889 112.122 11.889C114.004 11.889 115.533 12.4439 116.71 13.5834V4.49902H121.416ZM115.621 22.4044C116.357 21.6743 116.71 20.7689 116.71 19.6587C116.71 18.578 116.357 17.6722 115.621 16.9421C114.916 16.2119 114.063 15.8615 113.092 15.8615C111.004 15.8615 109.533 17.4386 109.533 19.6587C109.533 21.9079 111.004 23.4562 113.092 23.4562C114.063 23.4562 114.916 23.1053 115.621 22.4044Z" fill="url(#paint9_linear_1_530)"/>
<path d="M140 11.891L130.425 33.9999H125.338L128.602 26.4936L122.303 11.891H127.362L131.042 20.8857L134.941 11.891H140Z" fill="url(#paint10_linear_1_530)"/>
</g>
<defs>
<linearGradient id="paint0_linear_1_530" x1="-6.21574e-08" y1="1.43095e-05" x2="43.9505" y2="6.36039" gradientUnits="userSpaceOnUse">
<stop stop-color="#2D8DFE"/>
<stop offset="1" stop-color="#0E77F1"/>
</linearGradient>
<linearGradient id="paint1_linear_1_530" x1="-1.67264e-05" y1="1.33365e-05" x2="43.9504" y2="6.36039" gradientUnits="userSpaceOnUse">
<stop stop-color="#2D8DFE"/>
<stop offset="1" stop-color="#0E77F1"/>
</linearGradient>
<linearGradient id="paint2_linear_1_530" x1="-9.10046e-06" y1="-5.07985e-05" x2="43.9504" y2="6.36032" gradientUnits="userSpaceOnUse">
<stop stop-color="#2D8DFE"/>
<stop offset="1" stop-color="#0E77F1"/>
</linearGradient>
<linearGradient id="paint3_linear_1_530" x1="-7.66835e-06" y1="-4.49003e-06" x2="43.9505" y2="6.36037" gradientUnits="userSpaceOnUse">
<stop stop-color="#2D8DFE"/>
<stop offset="1" stop-color="#0E77F1"/>
</linearGradient>
<linearGradient id="paint4_linear_1_530" x1="7.81514e-06" y1="7.92918e-07" x2="43.9505" y2="6.36037" gradientUnits="userSpaceOnUse">
<stop stop-color="#2D8DFE"/>
<stop offset="1" stop-color="#0E77F1"/>
</linearGradient>
<linearGradient id="paint5_linear_1_530" x1="140" y1="19.2495" x2="50.0157" y2="19.2496" gradientUnits="userSpaceOnUse">
<stop stop-color="#141414"/>
<stop offset="0.484375" stop-color="#2B3C50"/>
<stop offset="1" stop-color="#141414"/>
</linearGradient>
<linearGradient id="paint6_linear_1_530" x1="140" y1="19.2495" x2="50.0157" y2="19.2496" gradientUnits="userSpaceOnUse">
<stop stop-color="#141414"/>
<stop offset="0.484375" stop-color="#2B3C50"/>
<stop offset="1" stop-color="#141414"/>
</linearGradient>
<linearGradient id="paint7_linear_1_530" x1="140" y1="19.2494" x2="50.0157" y2="19.2496" gradientUnits="userSpaceOnUse">
<stop stop-color="#141414"/>
<stop offset="0.484375" stop-color="#2B3C50"/>
<stop offset="1" stop-color="#141414"/>
</linearGradient>
<linearGradient id="paint8_linear_1_530" x1="140" y1="19.2494" x2="50.0157" y2="19.2495" gradientUnits="userSpaceOnUse">
<stop stop-color="#141414"/>
<stop offset="0.484375" stop-color="#2B3C50"/>
<stop offset="1" stop-color="#141414"/>
</linearGradient>
<linearGradient id="paint9_linear_1_530" x1="140" y1="19.2495" x2="50.0157" y2="19.2496" gradientUnits="userSpaceOnUse">
<stop stop-color="#141414"/>
<stop offset="0.484375" stop-color="#2B3C50"/>
<stop offset="1" stop-color="#141414"/>
</linearGradient>
<linearGradient id="paint10_linear_1_530" x1="140" y1="19.2494" x2="50.0157" y2="19.2495" gradientUnits="userSpaceOnUse">
<stop stop-color="#141414"/>
<stop offset="0.484375" stop-color="#2B3C50"/>
<stop offset="1" stop-color="#141414"/>
</linearGradient>
<clipPath id="clip0_1_530">
<rect width="140" height="34" fill="white"/>
</clipPath>
</defs>
</svg>
