<svg xmlns="http://www.w3.org/2000/svg">
  <symbol id="prom" viewBox="0 0 81 22">
    <g>
      <path xmlns="http://www.w3.org/2000/svg" fill-rule="evenodd" clip-rule="evenodd" d="M0.0342331 8.76181L0 17.2795H8.91488L17.8298 17.2795L17.8298 8.76181V0.24408L8.94911 0.24408L0.0683366 0.24408L0.0342331 8.76181ZM13.81 8.76181V13.4248H8.9473L4.08463 13.4248L4.08463 8.76181V4.09882L8.9473 4.09882L13.81 4.09882L13.81 8.76181ZM52.225 5.28222C49.8366 5.77973 47.7809 7.59768 47.1866 9.73793C46.9782 10.4886 46.9566 12.0125 47.1433 12.7891C47.5964 14.6741 49.3122 16.4525 51.3822 17.183C52.4702 17.567 55.0377 17.563 56.137 17.1758C57.1868 16.806 57.9903 16.2887 58.8368 15.4377C60.0404 14.2277 60.4873 13.1071 60.4899 11.2929C60.492 9.89784 60.1555 8.84064 59.3938 7.84848C57.7486 5.70525 54.9696 4.71048 52.225 5.28222ZM29.008 5.4011C28.08 5.60179 27.455 5.93318 26.977 6.47781L26.6474 6.85346V6.16011V5.46663L24.832 5.46663H23.0166V13.5491L23.0166 21.6317H24.832H26.6474L26.6496 18.6784L26.6518 15.7252L26.9199 16.1267C27.3149 16.7181 28.5699 17.2713 29.7275 17.3645C32.2916 17.5705 34.5204 16.3607 35.6429 14.1532C37.0815 11.3248 36.1909 7.93217 33.5531 6.19182C32.3534 5.40035 30.5016 5.07817 29.008 5.4011ZM43.916 5.39998C43.1857 5.62181 42.4095 6.14357 42.0831 6.63188L41.8233 7.02096L41.8211 6.24379L41.8189 5.46663L40.0035 5.46663H38.1881V11.3109V17.1552H40.0035H41.8189V14.0692C41.8189 10.5061 41.9109 9.9993 42.6899 9.27387C43.3267 8.68073 44.1605 8.42645 45.3477 8.46338L46.2925 8.49272V6.88642V5.28011L45.3848 5.25487C44.8856 5.24094 44.2247 5.30622 43.916 5.39998ZM67.9971 5.38966C67.257 5.6432 66.6287 6.06274 66.3388 6.49671L66.0718 6.89661L66.0696 6.18162L66.0673 5.46663H64.252L62.4366 5.46663V11.3109V17.1552H64.252H66.0673L66.0702 13.5802C66.0733 9.65486 66.1179 9.39399 66.9036 8.69964C67.2013 8.43652 67.3809 8.38877 68.0741 8.38877C68.7095 8.38877 68.958 8.44448 69.1837 8.63746C69.7886 9.15474 69.8278 9.44534 69.8278 13.4208V17.1552H71.6359H73.4442L73.4837 13.5181C73.5208 10.1132 73.5407 9.84922 73.794 9.38354C74.1627 8.7061 74.7751 8.3266 75.5001 8.3266C76.2513 8.3266 76.774 8.6346 77.0921 9.26467C77.3302 9.73606 77.3487 10.0402 77.3487 13.4641V17.1552H79.1744H81L80.9563 12.8342L80.9125 8.51311L80.577 7.74776C79.7715 5.9098 78.3411 5.10901 76.1236 5.25437C74.6687 5.34974 73.9236 5.63064 73.1456 6.37672C72.7047 6.7995 72.4806 6.94113 72.4408 6.82225C72.2925 6.37921 71.2941 5.61199 70.6137 5.41826C69.7758 5.17964 68.646 5.1672 67.9971 5.38966ZM55.076 8.53164C56.2427 9.09941 56.8957 10.0919 56.9044 11.3105C56.9232 13.9616 53.785 15.3748 51.7304 13.6405C50.9497 12.9815 50.643 12.3398 50.6394 11.3572C50.6352 10.2393 51.0598 9.42047 51.9633 8.80346C52.8064 8.22774 54.2014 8.10588 55.076 8.53164ZM30.8302 8.63286C32.2441 9.19938 32.9723 10.6173 32.6046 12.0876C32.4779 12.594 32.299 12.871 31.772 13.3763C31.2079 13.9173 30.9833 14.0434 30.3653 14.1664C27.9406 14.6491 25.908 12.7094 26.5656 10.5405C26.8045 9.75185 27.4595 9.0345 28.2578 8.68683C28.9055 8.40481 30.1935 8.3777 30.8302 8.63286Z" fill="#001E41"/>
    </g>
  </symbol>

</svg>